<svg width="36" height="42" viewBox="0 0 36 42" fill="none" xmlns="http://www.w3.org/2000/svg">
<path d="M32.4238 6.00003H29.8196C29.7653 6.00003 29.7171 6.01867 29.6666 6.03087V3.29621C29.6666 1.47853 28.1542 0 26.2949 0H3.70506C1.84571 0 0.333313 1.47853 0.333313 3.29621V34.0371C0.333313 35.8548 1.84571 37.3333 3.70506 37.3333H7.66664V38.8216C7.66664 40.5742 9.12109 42 10.9095 42H32.4238C34.2122 42 35.6667 40.5742 35.6667 38.8216V9.17838C35.6667 7.4258 34.2122 6.00003 32.4238 6.00003ZM1.66662 34.0371V3.29621C1.66662 2.21419 2.58136 1.33337 3.70506 1.33337H26.2949C27.4186 1.33337 28.3333 2.21419 28.3333 3.29621V34.0371C28.3333 35.1192 27.4186 36 26.2949 36H3.70506C2.58136 36 1.66662 35.1192 1.66662 34.0371ZM34.3333 38.8216C34.3333 39.8392 33.4766 40.6667 32.4238 40.6667H10.9095C9.85675 40.6667 8.99995 39.8392 8.99995 38.8216V37.3333H26.2949C28.1542 37.3333 29.6666 35.8548 29.6666 34.0371V7.30249C29.7171 7.31469 29.7653 7.33333 29.8196 7.33333H32.4238C33.4766 7.33333 34.3333 8.1608 34.3333 9.17838V38.8216V38.8216Z" fill="#FFF8F8"/>
<path d="M22.3333 8.66669H7.66665C7.29817 8.66669 6.99997 8.96482 6.99997 9.33331C6.99997 9.70186 7.29817 9.99999 7.66665 9.99999H22.3333C22.7018 9.99999 23 9.70186 23 9.33331C23 8.96482 22.7018 8.66669 22.3333 8.66669Z" fill="#FFF8F8"/>
<path d="M22.3333 14H7.66665C7.29817 14 6.99997 14.2982 6.99997 14.6666C6.99997 15.0351 7.29817 15.3333 7.66665 15.3333H22.3333C22.7018 15.3333 23 15.0351 23 14.6666C23 14.2982 22.7018 14 22.3333 14Z" fill="#FFF8F8"/>
<path d="M22.3333 19.3333H7.66665C7.29817 19.3333 6.99997 19.6315 6.99997 20C6.99997 20.3685 7.29817 20.6667 7.66665 20.6667H22.3333C22.7018 20.6667 23 20.3685 23 20C23 19.6315 22.7018 19.3333 22.3333 19.3333Z" fill="#FFF8F8"/>
<path d="M15.6667 24.6667H7.66665C7.29817 24.6667 6.99997 24.9649 6.99997 25.3333C6.99997 25.7018 7.29817 26 7.66665 26H15.6667C16.0352 26 16.3333 25.7018 16.3333 25.3333C16.3333 24.9649 16.0352 24.6667 15.6667 24.6667Z" fill="#FFF8F8"/>
</svg>
